<svg width="18" height="18" viewBox="0 0 18 18" fill="none" xmlns="http://www.w3.org/2000/svg">
    <g id="clock">
        <path d="M9 17C13.4183 17 17 13.4183 17 9C17 4.58172 13.4183 1 9 1C4.58172 1 1 4.58172 1 9C1 13.4183 4.58172 17 9 17Z" stroke="#666666" stroke-linecap="round" stroke-linejoin="round"/>
        <path d="M9 4V8.5L12 10" stroke="#666666" stroke-linecap="round" stroke-linejoin="round"/>
    </g>

    <g id="location">
        <path d="M17 1L8 10" stroke="#666666" stroke-linecap="round" stroke-linejoin="round"/>
        <path d="M17 1L11.4 17L8.2 9.8L1 6.6L17 1Z" stroke="#666666" stroke-linecap="round" stroke-linejoin="round"/>
    </g>

    <g id="map-pin">
        <path d="M14 7.13636C14 11.9091 8 16 8 16C8 16 2 11.9091 2 7.13636C2 5.5089 2.63214 3.94809 3.75736 2.7973C4.88258 1.64651 6.4087 1 8 1C9.5913 1 11.1174 1.64651 12.2426 2.7973C13.3679 3.94809 14 5.5089 14 7.13636Z" stroke="#666666" stroke-linecap="round" stroke-linejoin="round"/>
        <path d="M8 9C9.10457 9 10 8.10457 10 7C10 5.89543 9.10457 5 8 5C6.89543 5 6 5.89543 6 7C6 8.10457 6.89543 9 8 9Z" stroke="#666666" stroke-linecap="round" stroke-linejoin="round"/>
    </g>

    <g id="play">
        <path fill-rule="evenodd" clip-rule="evenodd" d="M0.966938 5.40077C0.966938 1.58132 5.98222 -0.633391 9.57953 0.859117C13.7005 3.60287 48.7442 23.6311 51.9139 26.3049C55.0835 28.9786 55.9924 33.2239 51.6985 36.3813C47.4049 39.5384 13.2778 59.9217 9.57953 61.6918C5.88049 63.4615 1.12106 61.0536 0.966938 56.5742C0.812812 52.0947 0.966938 9.21982 0.966938 5.40077ZM6.14443 8.71658C6.14443 9.69177 6.11515 52.8435 6.06121 53.7311C5.97258 55.1868 7.21716 56.6496 8.95108 55.782C10.685 54.9139 46.5279 33.2188 47.9513 32.6569C49.375 32.0946 49.2806 30.6627 47.9513 29.7681C46.6223 28.8734 10.1259 7.68351 9.05858 6.7529C7.99126 5.82189 6.14443 7.21899 6.14443 8.71658Z" fill="#121212"/>
    </g>

    <g id="loupe">
        <path d="M73.5948 0C106.348 0 133 26.6059 133 59.3148C133 92.0235 106.348 118.67 73.5948 118.67C62.4906 118.67 52.1205 115.546 43.215 110.223C42.1211 111.512 40.7008 113.203 39.031 115.229C35.5517 119.45 31.0783 124.92 26.6911 130.337C17.9168 141.173 9.42947 151.774 9.42947 151.774C9.02553 152.357 8.50594 152.85 7.90298 153.224C7.30003 153.597 6.62661 153.843 5.92455 153.945C5.22249 154.048 4.50679 154.006 3.82193 153.82C3.13707 153.635 2.49768 153.311 1.94348 152.868C1.38928 152.426 0.932114 151.875 0.600388 151.248C0.268661 150.622 0.0694733 149.934 0.0151825 149.227C-0.0391083 148.521 0.0526733 147.811 0.284805 147.141C0.516937 146.472 0.884476 145.857 1.36459 145.335C1.36459 145.335 9.87256 134.718 18.6667 123.858C23.0638 118.428 27.5315 112.933 31.047 108.668C32.5357 106.862 33.721 105.427 34.7964 104.147C22.1937 93.2518 14.1593 77.2141 14.1592 59.3148C14.1593 26.6059 40.8418 0 73.5948 0ZM73.5948 10.3351C46.4348 10.3351 24.5183 32.1915 24.5183 59.3148C24.5183 86.4382 46.4348 108.325 73.5948 108.325C100.755 108.325 122.681 86.4382 122.681 59.3148C122.681 32.1915 100.755 10.3351 73.5948 10.3351Z" fill="#121212"/>
    </g>

</svg>
